<?xml version="1.0" encoding="UTF-8" standalone="no"?>
<!DOCTYPE svg PUBLIC "-//W3C//DTD SVG 1.1//EN"
        "http://www.w3.org/Graphics/SVG/1.1/DTD/svg11.dtd">
<svg width="400" height="400" viewBox="-30 -40 80 80"
     xmlns="http://www.w3.org/2000/svg"
     xmlns:xlink="http://www.w3.org/1999/xlink">
    <g style="stroke:#000;stroke-width:6;stroke-linecap:round;fill:#D39C75;fill-opacity:0.7;">
        <path d="M 0 25
           A 35 25 -25 1 1 1 25
           "/>
    </g>
    <g style="stroke:#000;stroke-width:3;stroke-linejoin:round;stroke-linecap:round;fill:#fff;">
        <line x1="30" y1="-15" x2="-10" y2="15"/>
        <line x1="-5" y1="-15" x2="25" y2="10"/>
        <!--<line x1="-20" y1="30" x2="20" y2="30"/>-->
        <!--<line x1="-20" y1="0" x2="0" y2="-20"/>-->
        <!--<line x1="-10" y1="0" x2="-15" y2="-20"/>-->
        <!--<line x1="-20" y1="-15" x2="-9" y2="-18"/>-->
    </g>
    <!-- колки -->
    <!--&lt;!&ndash; Линии центра координатной сетки &ndash;&gt;-->
    <!--<g style="stroke:#000;stroke-width:0.1;fill:transparent;">-->
        <!--<line x1="0" y1="-105" x2="0" y2="105"/>-->
        <!--<line x1="5" y1="-105" x2="5" y2="105"/>-->
        <!--<line x1="10" y1="-105" x2="10" y2="105"/>-->
        <!--<line x1="15" y1="-105" x2="15" y2="105"/>-->
        <!--<line x1="20" y1="-105" x2="20" y2="105"/>-->
        <!--<line x1="25" y1="-105" x2="25" y2="105"/>-->
        <!--<line x1="30" y1="-105" x2="30" y2="105"/>-->
        <!--<line x1="35" y1="-105" x2="35" y2="105"/>-->
        <!--<line x1="40" y1="-105" x2="40" y2="105"/>-->
        <!--<line x1="45" y1="-105" x2="45" y2="105"/>-->
        <!--<line x1="50" y1="-105" x2="50" y2="105"/>-->
        <!--<line x1="55" y1="-105" x2="55" y2="105"/>-->
        <!--<line x1="60" y1="-105" x2="60" y2="105"/>-->
        <!--<line x1="65" y1="-105" x2="65" y2="105"/>-->
        <!--<line x1="70" y1="-105" x2="70" y2="105"/>-->
        <!--<line x1="75" y1="-105" x2="75" y2="105"/>-->
        <!--<line x1="80" y1="-105" x2="80" y2="105"/>-->
        <!--<line x1="85" y1="-105" x2="85" y2="105"/>-->
        <!--<line x1="90" y1="-105" x2="90" y2="105"/>-->
        <!--<line x1="95" y1="-105" x2="95" y2="105"/>-->
        <!--<line x1="100" y1="-105" x2="100" y2="105"/>-->
        <!--<line x1="-5" y1="-105" x2="-5" y2="105"/>-->
        <!--<line x1="-10" y1="-105" x2="-10" y2="105"/>-->
        <!--<line x1="-15" y1="-105" x2="-15" y2="105"/>-->
        <!--<line x1="-20" y1="-105" x2="-20" y2="105"/>-->
        <!--<line x1="-25" y1="-105" x2="-25" y2="105"/>-->
        <!--<line x1="-30" y1="-105" x2="-30" y2="105"/>-->
        <!--<line x1="-35" y1="-105" x2="-35" y2="105"/>-->
        <!--<line x1="-40" y1="-105" x2="-40" y2="105"/>-->
        <!--<line x1="-45" y1="-105" x2="-45" y2="105"/>-->
        <!--<line x1="-50" y1="-105" x2="-50" y2="105"/>-->
        <!--<line x1="-55" y1="-105" x2="-55" y2="105"/>-->
        <!--<line x1="-60" y1="-105" x2="-60" y2="105"/>-->
        <!--<line x1="-65" y1="-105" x2="-65" y2="105"/>-->
        <!--<line x1="-70" y1="-105" x2="-70" y2="105"/>-->
        <!--<line x1="-75" y1="-105" x2="-75" y2="105"/>-->
        <!--<line x1="-80" y1="-105" x2="-80" y2="105"/>-->
        <!--<line x1="-85" y1="-105" x2="-85" y2="105"/>-->
        <!--<line x1="-90" y1="-105" x2="-90" y2="105"/>-->
        <!--<line x1="-95" y1="-105" x2="-95" y2="105"/>-->
        <!--<line x1="-100" y1="-105" x2="-100" y2="105"/>-->
        <!--<line x1="-105" y1="0" x2="105" y2="0"/>-->
        <!--<line x1="-105" y1="5" x2="105" y2="5"/>-->
        <!--<line x1="-105" y1="10" x2="105" y2="10"/>-->
        <!--<line x1="-105" y1="15" x2="105" y2="15"/>-->
        <!--<line x1="-105" y1="20" x2="105" y2="20"/>-->
        <!--<line x1="-105" y1="25" x2="105" y2="25"/>-->
        <!--<line x1="-105" y1="30" x2="105" y2="30"/>-->
        <!--<line x1="-105" y1="35" x2="105" y2="35"/>-->
        <!--<line x1="-105" y1="40" x2="105" y2="40"/>-->
        <!--<line x1="-105" y1="45" x2="105" y2="45"/>-->
        <!--<line x1="-105" y1="50" x2="105" y2="50"/>-->
        <!--<line x1="-105" y1="55" x2="105" y2="55"/>-->
        <!--<line x1="-105" y1="60" x2="105" y2="60"/>-->
        <!--<line x1="-105" y1="65" x2="105" y2="65"/>-->
        <!--<line x1="-105" y1="70" x2="105" y2="70"/>-->
        <!--<line x1="-105" y1="75" x2="105" y2="75"/>-->
        <!--<line x1="-105" y1="80" x2="105" y2="80"/>-->
        <!--<line x1="-105" y1="85" x2="105" y2="85"/>-->
        <!--<line x1="-105" y1="90" x2="105" y2="90"/>-->
        <!--<line x1="-105" y1="95" x2="105" y2="95"/>-->
        <!--<line x1="-105" y1="100" x2="105" y2="100"/>-->
        <!--<line x1="-105" y1="-5" x2="105" y2="-5"/>-->
        <!--<line x1="-105" y1="-10" x2="105" y2="-10"/>-->
        <!--<line x1="-105" y1="-15" x2="105" y2="-15"/>-->
        <!--<line x1="-105" y1="-20" x2="105" y2="-20"/>-->
        <!--<line x1="-105" y1="-25" x2="105" y2="-25"/>-->
        <!--<line x1="-105" y1="-30" x2="105" y2="-30"/>-->
        <!--<line x1="-105" y1="-35" x2="105" y2="-35"/>-->
        <!--<line x1="-105" y1="-40" x2="105" y2="-40"/>-->
        <!--<line x1="-105" y1="-45" x2="105" y2="-45"/>-->
        <!--<line x1="-105" y1="-50" x2="105" y2="-50"/>-->
        <!--<line x1="-105" y1="-55" x2="105" y2="-55"/>-->
        <!--<line x1="-105" y1="-60" x2="105" y2="-60"/>-->
        <!--<line x1="-105" y1="-65" x2="105" y2="-65"/>-->
        <!--<line x1="-105" y1="-70" x2="105" y2="-70"/>-->
        <!--<line x1="-105" y1="-75" x2="105" y2="-75"/>-->
        <!--<line x1="-105" y1="-80" x2="105" y2="-80"/>-->
        <!--<line x1="-105" y1="-85" x2="105" y2="-85"/>-->
        <!--<line x1="-105" y1="-90" x2="105" y2="-90"/>-->
        <!--<line x1="-105" y1="-95" x2="105" y2="-95"/>-->
        <!--<line x1="-105" y1="-100" x2="105" y2="-100"/>-->
        <!--<circle cx="0" cy="0" r="100"/>-->
    <!--</g>-->
</svg>