<?xml version="1.0" encoding="UTF-8" standalone="no"?>
<!DOCTYPE svg PUBLIC "-//W3C//DTD SVG 1.1//EN"
        "http://www.w3.org/Graphics/SVG/1.1/DTD/svg11.dtd">
<svg width="400" height="400" viewBox="-50 -50 100 100"
     xmlns="http://www.w3.org/2000/svg"
     xmlns:xlink="http://www.w3.org/1999/xlink">
    <!--<g style="stroke:#000;stroke-width:3;stroke-linejoin:round;stroke-linecap:round;fill:#ccc;">-->
        <!--<circle cx="0" cy="0" r="40"/>-->
        <!--<circle cx="0" cy="20" r="20"/>-->
        <!--<circle cx="0" cy="-20" r="20"/>-->
        <!--<circle cx="0" cy="20" r="5"/>-->
        <!--<circle cx="0" cy="-20" r="5"/>-->
    <!--</g>-->

    <g style="stroke:#000;stroke-width:0.5;stroke-linejoin:round;">
        <circle cx="0" cy="0" r="25" style="stroke-width:0.5;fill:#fff;"/>
    </g>

    <!--<g style="stroke:#000;stroke-width:0.5;stroke-linejoin:round;stroke-linecap:round;fill:#000;">-->
        <!--<circle cx="0" cy="25" r="25"  style="stroke-width:1;stroke:#000;fill:#00f;fill-opacity:0.5;"/>-->
        <!--<circle cx="0" cy="-25" r="25" style="stroke-width:1;stroke:#000;fill:#00f;fill-opacity:0.5;"/>-->
        <!--<animateTransform attributeName="transform"-->
                          <!--attributeType="XML"-->
                          <!--type="rotate"-->
                          <!--from="0 0 0"-->
                          <!--to="360 0 0"-->
                          <!--dur="20s"-->
                          <!--repeatCount="indefinite"/>-->
    <!--</g>-->


    <g style="stroke:#000;stroke-width:0.5;stroke-linejoin:round;stroke-linecap:round;fill:#000;">
        <circle cx="0" cy="25" r="25"  style="stroke-width:1;stroke:#000;fill:#00f;fill-opacity:0.75"/>
        <circle cx="0" cy="-25" r="25" style="stroke-width:1;stroke:#000;fill:#00f;fill-opacity:0.75;"/>
    </g>

    <g style="stroke:#000;stroke-width:0.5;stroke-linejoin:round;stroke-linecap:round;fill:#000;">
        <circle cx="22" cy="-12.8" r="25"  style="stroke-width:1;stroke:#000;fill:#f00;fill-opacity:0.75"/>
        <circle cx="-22" cy="12.8" r="25"  style="stroke-width:1;stroke:#000;fill:#f00;fill-opacity:0.75"/>
        <animateTransform attributeName="transform"
                          attributeType="XML"
                          type="rotate"
                          from="0 0 0"
                          to="-360 0 0"
                          dur="20s"
                          repeatCount="indefinite"/>
    </g>

    <g style="stroke:#000;stroke-width:0.5;stroke-linejoin:round;stroke-linecap:round;fill:#000;">
        <circle cx="12.8" cy="22" r="25"  style="stroke-width:1;stroke:#000;fill:#0f0;fill-opacity:0.75"/>
        <circle cx="22" cy="-12.8" r="1"  style="stroke-width:1;stroke:#000;fill:#0f00;"/>
        <!--<circle cx="-20" cy="-15" r="25" style="stroke-width:1;stroke:#000;fill:#0f0;fill-opacity:0.5"/>-->
        <circle cx="-12.8" cy="-22" r="25"  style="stroke-width:1;stroke:#000;fill:#0f0;fill-opacity:0.75"/>
        <animateTransform attributeName="transform"
                          attributeType="XML"
                          type="rotate"
                          from="0 0 0"
                          to="360 0 0"
                          dur="20s"
                          repeatCount="indefinite"/>
    </g>

    <!--<g style="stroke:#000;stroke-width:0.5;stroke-linejoin:round;stroke-linecap:round;fill:#000;">-->
        <!--<circle cx="-25" cy="15" r="25"  style="stroke-width:1;stroke:#000;fill:#0f0;fill-opacity:0.5"/>-->
        <!--<circle cx="25" cy="15" r="25" style="stroke-width:1;stroke:#000;fill:#0f0;fill-opacity:0.5;"/>-->
        <!--&lt;!&ndash;<animateTransform attributeName="transform"&ndash;&gt;-->
                          <!--&lt;!&ndash;attributeType="XML"&ndash;&gt;-->
                          <!--&lt;!&ndash;type="rotate"&ndash;&gt;-->
                          <!--&lt;!&ndash;from="0 0 0"&ndash;&gt;-->
                          <!--&lt;!&ndash;to="360 0 0"&ndash;&gt;-->
                          <!--&lt;!&ndash;dur="20s"&ndash;&gt;-->
                          <!--&lt;!&ndash;repeatCount="indefinite"/>&ndash;&gt;-->
    <!--</g>-->


    <!-- колки -->
    <!--&lt;!&ndash; Линии центра координатной сетки &ndash;&gt;-->
    <g style="stroke:#000;stroke-width:0.1;fill:transparent;">
        <line x1="0" y1="-50" x2="0" y2="50" style="stroke-width:0.15;"/>
        <line x1="-50" y1="0" x2="50" y2="0" style="stroke-width:0.15;"/>
        <line x1="0" y1="-105" x2="0" y2="105"/>
        <line x1="5" y1="-105" x2="5" y2="105"/>
        <line x1="10" y1="-105" x2="10" y2="105"/>
        <line x1="15" y1="-105" x2="15" y2="105"/>
        <line x1="20" y1="-105" x2="20" y2="105"/>
        <line x1="25" y1="-105" x2="25" y2="105"/>
        <line x1="30" y1="-105" x2="30" y2="105"/>
        <line x1="35" y1="-105" x2="35" y2="105"/>
        <line x1="40" y1="-105" x2="40" y2="105"/>
        <line x1="45" y1="-105" x2="45" y2="105"/>
        <line x1="50" y1="-105" x2="50" y2="105"/>
        <line x1="55" y1="-105" x2="55" y2="105"/>
        <line x1="60" y1="-105" x2="60" y2="105"/>
        <line x1="65" y1="-105" x2="65" y2="105"/>
        <line x1="70" y1="-105" x2="70" y2="105"/>
        <line x1="75" y1="-105" x2="75" y2="105"/>
        <line x1="80" y1="-105" x2="80" y2="105"/>
        <line x1="85" y1="-105" x2="85" y2="105"/>
        <line x1="90" y1="-105" x2="90" y2="105"/>
        <line x1="95" y1="-105" x2="95" y2="105"/>
        <line x1="100" y1="-105" x2="100" y2="105"/>
        <line x1="-5" y1="-105" x2="-5" y2="105"/>
        <line x1="-10" y1="-105" x2="-10" y2="105"/>
        <line x1="-15" y1="-105" x2="-15" y2="105"/>
        <line x1="-20" y1="-105" x2="-20" y2="105"/>
        <line x1="-25" y1="-105" x2="-25" y2="105"/>
        <line x1="-30" y1="-105" x2="-30" y2="105"/>
        <line x1="-35" y1="-105" x2="-35" y2="105"/>
        <line x1="-40" y1="-105" x2="-40" y2="105"/>
        <line x1="-45" y1="-105" x2="-45" y2="105"/>
        <line x1="-50" y1="-105" x2="-50" y2="105"/>
        <line x1="-55" y1="-105" x2="-55" y2="105"/>
        <line x1="-60" y1="-105" x2="-60" y2="105"/>
        <line x1="-65" y1="-105" x2="-65" y2="105"/>
        <line x1="-70" y1="-105" x2="-70" y2="105"/>
        <line x1="-75" y1="-105" x2="-75" y2="105"/>
        <line x1="-80" y1="-105" x2="-80" y2="105"/>
        <line x1="-85" y1="-105" x2="-85" y2="105"/>
        <line x1="-90" y1="-105" x2="-90" y2="105"/>
        <line x1="-95" y1="-105" x2="-95" y2="105"/>
        <line x1="-100" y1="-105" x2="-100" y2="105"/>
        <line x1="-105" y1="0" x2="105" y2="0"/>
        <line x1="-105" y1="5" x2="105" y2="5"/>
        <line x1="-105" y1="10" x2="105" y2="10"/>
        <line x1="-105" y1="15" x2="105" y2="15"/>
        <line x1="-105" y1="20" x2="105" y2="20"/>
        <line x1="-105" y1="25" x2="105" y2="25"/>
        <line x1="-105" y1="30" x2="105" y2="30"/>
        <line x1="-105" y1="35" x2="105" y2="35"/>
        <line x1="-105" y1="40" x2="105" y2="40"/>
        <line x1="-105" y1="45" x2="105" y2="45"/>
        <line x1="-105" y1="50" x2="105" y2="50"/>
        <line x1="-105" y1="55" x2="105" y2="55"/>
        <line x1="-105" y1="60" x2="105" y2="60"/>
        <line x1="-105" y1="65" x2="105" y2="65"/>
        <line x1="-105" y1="70" x2="105" y2="70"/>
        <line x1="-105" y1="75" x2="105" y2="75"/>
        <line x1="-105" y1="80" x2="105" y2="80"/>
        <line x1="-105" y1="85" x2="105" y2="85"/>
        <line x1="-105" y1="90" x2="105" y2="90"/>
        <line x1="-105" y1="95" x2="105" y2="95"/>
        <line x1="-105" y1="100" x2="105" y2="100"/>
        <line x1="-105" y1="-5" x2="105" y2="-5"/>
        <line x1="-105" y1="-10" x2="105" y2="-10"/>
        <line x1="-105" y1="-15" x2="105" y2="-15"/>
        <line x1="-105" y1="-20" x2="105" y2="-20"/>
        <line x1="-105" y1="-25" x2="105" y2="-25"/>
        <line x1="-105" y1="-30" x2="105" y2="-30"/>
        <line x1="-105" y1="-35" x2="105" y2="-35"/>
        <line x1="-105" y1="-40" x2="105" y2="-40"/>
        <line x1="-105" y1="-45" x2="105" y2="-45"/>
        <line x1="-105" y1="-50" x2="105" y2="-50"/>
        <line x1="-105" y1="-55" x2="105" y2="-55"/>
        <line x1="-105" y1="-60" x2="105" y2="-60"/>
        <line x1="-105" y1="-65" x2="105" y2="-65"/>
        <line x1="-105" y1="-70" x2="105" y2="-70"/>
        <line x1="-105" y1="-75" x2="105" y2="-75"/>
        <line x1="-105" y1="-80" x2="105" y2="-80"/>
        <line x1="-105" y1="-85" x2="105" y2="-85"/>
        <line x1="-105" y1="-90" x2="105" y2="-90"/>
        <line x1="-105" y1="-95" x2="105" y2="-95"/>
        <line x1="-105" y1="-100" x2="105" y2="-100"/>
        <circle cx="0" cy="0" r="100"/>
    </g>
</svg>