<?xml version="1.0" encoding="UTF-8" standalone="no"?>
<!DOCTYPE svg PUBLIC "-//W3C//DTD SVG 1.1//EN"
        "http://www.w3.org/Graphics/SVG/1.1/DTD/svg11.dtd">
<svg width="160" height="320" viewBox="-20 0 40 20"
     xmlns="http://www.w3.org/2000/svg"
     xmlns:xlink="http://www.w3.org/1999/xlink">
    <!-- COPYRIGHT -->
    <text text-anchor="middle" style="font: bold 14px Verdana,Courier New; fill:#000;align:center;"
          x="-13"
          y="-17">
        ©
    </text>
    <!-- дека -->
    <g style="fill:#582400;stroke:#000;stroke-width:3;stroke-linecap:round;stroke-linejoin:round;fill:transparent;">
        <!-- дека -->
        <ellipse rx="10" ry="10" cx="0" cy="20" style="fill:transparent;"/>
        <!-- дека верх -->
        <!--<ellipse rx="7" ry="6" cx="0" cy="15"/>-->
        <!-- дека низ -->
        <!--<ellipse rx="10" ry="10" cx="0" cy="27"/>-->
        <!-- розетка -->
        <ellipse rx="4.5" ry="4.5" cx="0" cy="20" style="fill:#D39C75;fill:transparent;"/>
    </g>
    <!-- гриф -->
    <g style="stroke:#000;stroke-width:3;fill:#000;">
        <!-- тело -->
        <line x1="0" y1="10" x2="0" y2="-10"/>
    </g>
    <g style="stroke:#000;stroke-width:5;stroke-linecap:round;fill:#000;stroke-linejoin:round;">
        <line x1="0" y1="-8" x2="-1.3" y2="-13"/>
        <ellipse rx="1.2" ry="1.2" cx="-0.2" cy="-13"/>
    </g>
    <!-- колки -->
    <g style="stroke:#000;stroke-width:1;fill:#000;stroke-linecap:round;">
        <line x1="0" y1="-12.5" x2="-5.5" y2="-12.5"/>
        <ellipse rx="0.5" ry="0.5" cx="-5.5" cy="-12.5"/>
        <line x1="0" y1="-10" x2="-5" y2="-10"/>
        <ellipse rx="0.5" ry="0.5" cx="-5" cy="-10"/>
        <line x1="0" y1="-7.5" x2="-4.5" y2="-7.5"/>
        <ellipse rx="0.5" ry="0.5" cx="-4.5" cy="-7.5"/>
    </g>
    <!--&lt;!&ndash; Линии центра координатной сетки &ndash;&gt;-->
    <g style="stroke:#000;stroke-width:0.1;fill:transparent;">
        <line x1="0" y1="-105" x2="0" y2="105"/>
        <line x1="5" y1="-105" x2="5" y2="105"/>
        <line x1="10" y1="-105" x2="10" y2="105"/>
        <line x1="15" y1="-105" x2="15" y2="105"/>
        <line x1="20" y1="-105" x2="20" y2="105"/>
        <line x1="25" y1="-105" x2="25" y2="105"/>
        <line x1="30" y1="-105" x2="30" y2="105"/>
        <line x1="35" y1="-105" x2="35" y2="105"/>
        <line x1="40" y1="-105" x2="40" y2="105"/>
        <line x1="45" y1="-105" x2="45" y2="105"/>
        <line x1="50" y1="-105" x2="50" y2="105"/>
        <line x1="55" y1="-105" x2="55" y2="105"/>
        <line x1="60" y1="-105" x2="60" y2="105"/>
        <line x1="65" y1="-105" x2="65" y2="105"/>
        <line x1="70" y1="-105" x2="70" y2="105"/>
        <line x1="75" y1="-105" x2="75" y2="105"/>
        <line x1="80" y1="-105" x2="80" y2="105"/>
        <line x1="85" y1="-105" x2="85" y2="105"/>
        <line x1="90" y1="-105" x2="90" y2="105"/>
        <line x1="95" y1="-105" x2="95" y2="105"/>
        <line x1="100" y1="-105" x2="100" y2="105"/>
        <line x1="-5" y1="-105" x2="-5" y2="105"/>
        <line x1="-10" y1="-105" x2="-10" y2="105"/>
        <line x1="-15" y1="-105" x2="-15" y2="105"/>
        <line x1="-20" y1="-105" x2="-20" y2="105"/>
        <line x1="-25" y1="-105" x2="-25" y2="105"/>
        <line x1="-30" y1="-105" x2="-30" y2="105"/>
        <line x1="-35" y1="-105" x2="-35" y2="105"/>
        <line x1="-40" y1="-105" x2="-40" y2="105"/>
        <line x1="-45" y1="-105" x2="-45" y2="105"/>
        <line x1="-50" y1="-105" x2="-50" y2="105"/>
        <line x1="-55" y1="-105" x2="-55" y2="105"/>
        <line x1="-60" y1="-105" x2="-60" y2="105"/>
        <line x1="-65" y1="-105" x2="-65" y2="105"/>
        <line x1="-70" y1="-105" x2="-70" y2="105"/>
        <line x1="-75" y1="-105" x2="-75" y2="105"/>
        <line x1="-80" y1="-105" x2="-80" y2="105"/>
        <line x1="-85" y1="-105" x2="-85" y2="105"/>
        <line x1="-90" y1="-105" x2="-90" y2="105"/>
        <line x1="-95" y1="-105" x2="-95" y2="105"/>
        <line x1="-100" y1="-105" x2="-100" y2="105"/>
        <line x1="-105" y1="0" x2="105" y2="0"/>
        <line x1="-105" y1="5" x2="105" y2="5"/>
        <line x1="-105" y1="10" x2="105" y2="10"/>
        <line x1="-105" y1="15" x2="105" y2="15"/>
        <line x1="-105" y1="20" x2="105" y2="20"/>
        <line x1="-105" y1="25" x2="105" y2="25"/>
        <line x1="-105" y1="30" x2="105" y2="30"/>
        <line x1="-105" y1="35" x2="105" y2="35"/>
        <line x1="-105" y1="40" x2="105" y2="40"/>
        <line x1="-105" y1="45" x2="105" y2="45"/>
        <line x1="-105" y1="50" x2="105" y2="50"/>
        <line x1="-105" y1="55" x2="105" y2="55"/>
        <line x1="-105" y1="60" x2="105" y2="60"/>
        <line x1="-105" y1="65" x2="105" y2="65"/>
        <line x1="-105" y1="70" x2="105" y2="70"/>
        <line x1="-105" y1="75" x2="105" y2="75"/>
        <line x1="-105" y1="80" x2="105" y2="80"/>
        <line x1="-105" y1="85" x2="105" y2="85"/>
        <line x1="-105" y1="90" x2="105" y2="90"/>
        <line x1="-105" y1="95" x2="105" y2="95"/>
        <line x1="-105" y1="100" x2="105" y2="100"/>
        <line x1="-105" y1="-5" x2="105" y2="-5"/>
        <line x1="-105" y1="-10" x2="105" y2="-10"/>
        <line x1="-105" y1="-15" x2="105" y2="-15"/>
        <line x1="-105" y1="-20" x2="105" y2="-20"/>
        <line x1="-105" y1="-25" x2="105" y2="-25"/>
        <line x1="-105" y1="-30" x2="105" y2="-30"/>
        <line x1="-105" y1="-35" x2="105" y2="-35"/>
        <line x1="-105" y1="-40" x2="105" y2="-40"/>
        <line x1="-105" y1="-45" x2="105" y2="-45"/>
        <line x1="-105" y1="-50" x2="105" y2="-50"/>
        <line x1="-105" y1="-55" x2="105" y2="-55"/>
        <line x1="-105" y1="-60" x2="105" y2="-60"/>
        <line x1="-105" y1="-65" x2="105" y2="-65"/>
        <line x1="-105" y1="-70" x2="105" y2="-70"/>
        <line x1="-105" y1="-75" x2="105" y2="-75"/>
        <line x1="-105" y1="-80" x2="105" y2="-80"/>
        <line x1="-105" y1="-85" x2="105" y2="-85"/>
        <line x1="-105" y1="-90" x2="105" y2="-90"/>
        <line x1="-105" y1="-95" x2="105" y2="-95"/>
        <line x1="-105" y1="-100" x2="105" y2="-100"/>
        <circle cx="0" cy="0" r="100"/>
    </g>
</svg>