<?xml version="1.0" encoding="UTF-8" standalone="no"?>
<!DOCTYPE svg PUBLIC "-//W3C//DTD SVG 1.1//EN"
        "http://www.w3.org/Graphics/SVG/1.1/DTD/svg11.dtd">
<svg width="400" height="400" viewBox="-90 -90 180 180"
     xmlns="http://www.w3.org/2000/svg"
     xmlns:xlink="http://www.w3.org/1999/xlink">
    <defs>
        <circle cx="0" cy="0" r="60" id="text_circle_top" transform="rotate(180 0 0)"/>
        <style>
            text {
            font-size: 20px;
            font-family: Franklin Gothic, sans-serif;
            text-transform: uppercase;
            color: #000;
            }
        </style>
    </defs>
    <defs>
        <circle cx="0" cy="0" r="62" id="text_circle_bottom" transform="rotate(0 0 0)"/>
        <style>
            text.bottom {
            font-size: 14px;
            font-family: Franklin Gothic, sans-serif;
            text-transform: uppercase;
            color: #000;
            }
        </style>
    </defs>

    <g style="stroke:#000;stroke-width:3;stroke-linejoin:miter;stroke-linecap:round;fill:#fff;">
        <circle fill="stroke:#000;stroke-width:0.1;;" cx="0" cy="0" r="80"/>
    </g>
    <g style="stroke:#000;stroke-width:3;stroke-linejoin:miter;stroke-linecap:round;fill:#a00;">
        <circle fill="stroke:#000;stroke-width:0.1;" cx="0" cy="0" r="55"/>

        <path fill="#fff" d="
            M 25 -25
            L 35 -25
            L 35 5
            L 25 5
            L 25 35
            L 15 35
            L 15 45
            L -15 45
            L -15 35
            L -25 35
            L -25 5
            L -35 5
            L -35 -25
            L -25 -25
            L -25 -35
            L 5 -35
            L 5 -25
            L 25 -25
            "/>
        <path fill="#000" d="
            M 25 -25
            L 25 -35
            L 15 -35
            L 15 -45
            L -15 -45
            L -15 -35
            L 5 -35
            L 5 -25
            L 25 -25
            "/>
        <path fill="#000" d="
            M -5 15
            L -5 -15
            L -25 -15
            L -25 -5
            L -5 -5
            L -5 15
            "/>
        <path fill="#000" d="
            M 5 15
            L 5 -15
            L 25 -15
            L 25 -5
            L 5 -5
            L 5 15
            "/>
        <path fill="#000" d="
            M 15 15
            L 15 30
            L 15 25
            L -15 25
            L -15 30
            L -15 15
            L 15 15
            "/>
        <path fill="#fff" d="
            M -5 -5
            L -5 5
            L -15 5
            L -15 -5
            L -5 -5
            "/>
        <path fill="#000" d="
            M -10 0
            L -10 0
            "/>
        <path fill="#fff" d="
            M 5 -5
            L 5 5
            L 15 5
            L 15 -5
            L 5 -5
            "/>
        <path fill="#000" d="
            M 10 0
            L 10 0
            "/>
        <path fill="#000" d="
            M 0 40
            L -5 40
            L 5 40
            L 0 40
            "/>
        <text style="stroke:#000;stroke-width:1;fill:#000;" dy="0" textLength="189">
            <textPath xlink:href="#text_circle_top">* big brother *</textPath>
        </text>
        <text class='bottom' style="stroke:#000;stroke-width:1;fill:#000;" dx="9" textLength="181">
            <textPath xlink:href="#text_circle_bottom">is watching you</textPath>
        </text>
    </g>

    <!--&lt;!&ndash; Линии центра координатной сетки &ndash;&gt;-->
<!--        <g style="stroke:#000;stroke-width:0.1;fill:transparent;">-->
<!--            <line x1="0" y1="-50" x2="0" y2="50" style="stroke-width:0.15;"/>-->
<!--            <line x1="-50" y1="0" x2="50" y2="0" style="stroke-width:0.15;"/>-->
<!--            <line x1="0" y1="-105" x2="0" y2="105"/>-->
<!--            <line x1="5" y1="-105" x2="5" y2="105"/>-->
<!--            <line x1="10" y1="-105" x2="10" y2="105"/>-->
<!--            <line x1="15" y1="-105" x2="15" y2="105"/>-->
<!--            <line x1="20" y1="-105" x2="20" y2="105"/>-->
<!--            <line x1="25" y1="-105" x2="25" y2="105"/>-->
<!--            <line x1="30" y1="-105" x2="30" y2="105"/>-->
<!--            <line x1="35" y1="-105" x2="35" y2="105"/>-->
<!--            <line x1="40" y1="-105" x2="40" y2="105"/>-->
<!--            <line x1="45" y1="-105" x2="45" y2="105"/>-->
<!--            <line x1="50" y1="-105" x2="50" y2="105"/>-->
<!--            <line x1="55" y1="-105" x2="55" y2="105"/>-->
<!--            <line x1="60" y1="-105" x2="60" y2="105"/>-->
<!--            <line x1="65" y1="-105" x2="65" y2="105"/>-->
<!--            <line x1="70" y1="-105" x2="70" y2="105"/>-->
<!--            <line x1="75" y1="-105" x2="75" y2="105"/>-->
<!--            <line x1="80" y1="-105" x2="80" y2="105"/>-->
<!--            <line x1="85" y1="-105" x2="85" y2="105"/>-->
<!--            <line x1="90" y1="-105" x2="90" y2="105"/>-->
<!--            <line x1="95" y1="-105" x2="95" y2="105"/>-->
<!--            <line x1="100" y1="-105" x2="100" y2="105"/>-->
<!--            <line x1="-5" y1="-105" x2="-5" y2="105"/>-->
<!--            <line x1="-10" y1="-105" x2="-10" y2="105"/>-->
<!--            <line x1="-15" y1="-105" x2="-15" y2="105"/>-->
<!--            <line x1="-20" y1="-105" x2="-20" y2="105"/>-->
<!--            <line x1="-25" y1="-105" x2="-25" y2="105"/>-->
<!--            <line x1="-30" y1="-105" x2="-30" y2="105"/>-->
<!--            <line x1="-35" y1="-105" x2="-35" y2="105"/>-->
<!--            <line x1="-40" y1="-105" x2="-40" y2="105"/>-->
<!--            <line x1="-45" y1="-105" x2="-45" y2="105"/>-->
<!--            <line x1="-50" y1="-105" x2="-50" y2="105"/>-->
<!--            <line x1="-55" y1="-105" x2="-55" y2="105"/>-->
<!--            <line x1="-60" y1="-105" x2="-60" y2="105"/>-->
<!--            <line x1="-65" y1="-105" x2="-65" y2="105"/>-->
<!--            <line x1="-70" y1="-105" x2="-70" y2="105"/>-->
<!--            <line x1="-75" y1="-105" x2="-75" y2="105"/>-->
<!--            <line x1="-80" y1="-105" x2="-80" y2="105"/>-->
<!--            <line x1="-85" y1="-105" x2="-85" y2="105"/>-->
<!--            <line x1="-90" y1="-105" x2="-90" y2="105"/>-->
<!--            <line x1="-95" y1="-105" x2="-95" y2="105"/>-->
<!--            <line x1="-100" y1="-105" x2="-100" y2="105"/>-->
<!--            <line x1="-105" y1="0" x2="105" y2="0"/>-->
<!--            <line x1="-105" y1="5" x2="105" y2="5"/>-->
<!--            <line x1="-105" y1="10" x2="105" y2="10"/>-->
<!--            <line x1="-105" y1="15" x2="105" y2="15"/>-->
<!--            <line x1="-105" y1="20" x2="105" y2="20"/>-->
<!--            <line x1="-105" y1="25" x2="105" y2="25"/>-->
<!--            <line x1="-105" y1="30" x2="105" y2="30"/>-->
<!--            <line x1="-105" y1="35" x2="105" y2="35"/>-->
<!--            <line x1="-105" y1="40" x2="105" y2="40"/>-->
<!--            <line x1="-105" y1="45" x2="105" y2="45"/>-->
<!--            <line x1="-105" y1="50" x2="105" y2="50"/>-->
<!--            <line x1="-105" y1="55" x2="105" y2="55"/>-->
<!--            <line x1="-105" y1="60" x2="105" y2="60"/>-->
<!--        <line x1="-105" y1="65" x2="105" y2="65"/>-->
<!--        <line x1="-105" y1="70" x2="105" y2="70"/>-->
<!--        <line x1="-105" y1="75" x2="105" y2="75"/>-->
<!--        <line x1="-105" y1="80" x2="105" y2="80"/>-->
<!--        <line x1="-105" y1="85" x2="105" y2="85"/>-->
<!--        <line x1="-105" y1="90" x2="105" y2="90"/>-->
<!--        <line x1="-105" y1="95" x2="105" y2="95"/>-->
<!--        <line x1="-105" y1="100" x2="105" y2="100"/>-->
<!--        <line x1="-105" y1="-5" x2="105" y2="-5"/>-->
<!--        <line x1="-105" y1="-10" x2="105" y2="-10"/>-->
<!--        <line x1="-105" y1="-15" x2="105" y2="-15"/>-->
<!--        <line x1="-105" y1="-20" x2="105" y2="-20"/>-->
<!--        <line x1="-105" y1="-25" x2="105" y2="-25"/>-->
<!--        <line x1="-105" y1="-30" x2="105" y2="-30"/>-->
<!--        <line x1="-105" y1="-35" x2="105" y2="-35"/>-->
<!--        <line x1="-105" y1="-40" x2="105" y2="-40"/>-->
<!--        <line x1="-105" y1="-45" x2="105" y2="-45"/>-->
<!--        <line x1="-105" y1="-50" x2="105" y2="-50"/>-->
<!--        <line x1="-105" y1="-55" x2="105" y2="-55"/>-->
<!--        <line x1="-105" y1="-60" x2="105" y2="-60"/>-->
<!--        <line x1="-105" y1="-65" x2="105" y2="-65"/>-->
<!--        <line x1="-105" y1="-70" x2="105" y2="-70"/>-->
<!--        <line x1="-105" y1="-75" x2="105" y2="-75"/>-->
<!--        <line x1="-105" y1="-80" x2="105" y2="-80"/>-->
<!--        <line x1="-105" y1="-85" x2="105" y2="-85"/>-->
<!--        <line x1="-105" y1="-90" x2="105" y2="-90"/>-->
<!--        <line x1="-105" y1="-95" x2="105" y2="-95"/>-->
<!--        <line x1="-105" y1="-100" x2="105" y2="-100"/>-->
<!--        <circle cx="0" cy="0" r="50"/>-->
<!--    </g>-->
</svg>